<svg width="48" height="48" viewBox="0 0 48 48" fill="none" xmlns="http://www.w3.org/2000/svg">
<path d="M24 40.05C28.4333 36.0167 31.7083 32.3583 33.825 29.075C35.9417 25.7917 37 22.9 37 20.4C37 16.4737 35.7451 13.2587 33.2354 10.7552C30.7257 8.25175 27.6472 7 24 7C20.3528 7 17.2743 8.25175 14.7646 10.7552C12.2549 13.2587 11 16.4737 11 20.4C11 22.9 12.0833 25.7917 14.25 29.075C16.4167 32.3583 19.6667 36.0167 24 40.05ZM24 44C18.6333 39.4333 14.625 35.1917 11.975 31.275C9.325 27.3583 8 23.7333 8 20.4C8 15.4 9.60833 11.4167 12.825 8.45C16.0417 5.48333 19.7667 4 24 4C28.2333 4 31.9583 5.48333 35.175 8.45C38.3917 11.4167 40 15.4 40 20.4C40 23.7333 38.675 27.3583 36.025 31.275C33.375 35.1917 29.3667 39.4333 24 44ZM18.5 26H21.5V20H26.5V26H29.5V16.75L24 13.1L18.5 16.75V26Z" fill="#FC3F3F"/>
</svg>
