<svg width="48" height="48" viewBox="0 0 48 48" fill="none" xmlns="http://www.w3.org/2000/svg">
<path d="M2 38V8.75H5V28.45H22.65V13H38.75C40.7437 13 42.4505 13.7099 43.8703 15.1297C45.2901 16.5495 46 18.2563 46 20.25V38H43V31.45H5V38H2ZM13.5 25.55C12 25.55 10.7417 25.0417 9.725 24.025C8.70833 23.0083 8.2 21.75 8.2 20.25C8.2 18.75 8.70833 17.4917 9.725 16.475C10.7417 15.4583 12 14.95 13.5 14.95C15 14.95 16.2583 15.4583 17.275 16.475C18.2917 17.4917 18.8 18.75 18.8 20.25C18.8 21.75 18.2917 23.0083 17.275 24.025C16.2583 25.0417 15 25.55 13.5 25.55ZM25.65 28.45H43V20.25C43 19.0813 42.5839 18.0807 41.7516 17.2484C40.9193 16.4161 39.9187 16 38.75 16H25.65V28.45ZM13.5 22.55C14.1333 22.55 14.675 22.325 15.125 21.875C15.575 21.425 15.8 20.8833 15.8 20.25C15.8 19.6167 15.575 19.075 15.125 18.625C14.675 18.175 14.1333 17.95 13.5 17.95C12.8667 17.95 12.325 18.175 11.875 18.625C11.425 19.075 11.2 19.6167 11.2 20.25C11.2 20.8833 11.425 21.425 11.875 21.875C12.325 22.325 12.8667 22.55 13.5 22.55Z" fill="#FC3F3F"/>
</svg>
